<svg id="banglore" xmlns="http://www.w3.org/2000/svg" width="165.116" height="200" viewBox="0 0 165.116 200">
  <path id="Path_24272" data-name="Path 24272" d="M38.728,111.836H68.16v85.3H38.728Zm53.908,0h29.432v85.3H92.636Zm-46.444-22.4H68.16v19.528H46.192Zm46.444,0H114.6v19.528H92.636ZM52,71.776H68.16v14.8H52Zm40.632,0H108.8v14.8H92.636ZM56.4,58.224H68.16V68.912H56.4Zm36.244,0H104.4V68.912H92.636ZM71.044,43.96H89.792V197.136H71.024ZM76.88,20.62h7.076V41.1h-7.1ZM78.964,0V17.752H74v23.34H68.16V55.36H50.56v2.864h2.956V68.912H43.764v2.864H49.14v14.8H38.8V89.44h4.54v19.528H31.076v2.864h4.8v85.3H0V200H165.116v-2.864H124.932v-85.3h4.8v-2.864H117.468V89.444H122V86.58H111.656V71.78h5.376V68.916h-9.764V58.224h2.956V55.36h-17.6V41.1H86.8V17.752H81.832V0Z" fill="#fff"/>
  <rect id="Rectangle_3645" data-name="Rectangle 3645" width="2.074" height="39.285" transform="translate(47.289 152.586)" fill="#fff"/>
  <rect id="Rectangle_3646" data-name="Rectangle 3646" width="2.074" height="38.022" transform="translate(59.54 152.586)" fill="#fff"/>
  <rect id="Rectangle_3647" data-name="Rectangle 3647" width="2.074" height="39.285" transform="translate(111.412 152.586)" fill="#fff"/>
  <rect id="Rectangle_3648" data-name="Rectangle 3648" width="2.074" height="38.022" transform="translate(99.16 152.586)" fill="#fff"/>
  <rect id="Rectangle_3649" data-name="Rectangle 3649" width="3.81" height="2.074" transform="translate(58.756 78.055)" fill="#fff"/>
  <rect id="Rectangle_3650" data-name="Rectangle 3650" width="3.81" height="2.074" transform="translate(98.974 78.055)" fill="#fff"/>
  <path id="Path_24273" data-name="Path 24273" d="M184.115,338.044h8.81v-8.807h-8.81Zm6.733-2.074h-4.659v-4.659h4.659Z" transform="translate(-130.202 -233.213)" fill="#fff"/>
  <path id="Path_24274" data-name="Path 24274" d="M349.2,329.236h-8.8v8.81h8.81Zm-6.733,2.074h4.659v4.659h-4.659Z" transform="translate(-240.709 -233.212)" fill="#fff"/>
</svg>
