<svg id="gurugram" xmlns="http://www.w3.org/2000/svg" width="160.112" height="200" viewBox="0 0 160.112 200">
  <path id="Path_24275" data-name="Path 24275" d="M44.508,192.7l68-42.884V197.2h-68Zm0-44h64.576L44.508,189.392Zm0-16.42h68V145.9h-68Zm0-18.988h68V129.48h-68Zm0-16.42h68V110.5h-68Zm0-17.96h68V94.076h-68Zm0-6.212,16-8.692h52.02v12.1h-68Zm6.044-14.216,11.028-5.96v7.708l-1.8.976h-.236v.128l-9,4.888ZM95.2,45.132h17.34V61.2H65.648ZM64.4,50.988l11.028-5.96V52.7L64.4,58.7Zm13.828-7.472,11.028-5.96V45.2l-11.028,6Zm34.32-7.808v6.624H100.336Zm-20.492.34,11.028-5.96v7.58l-11.028,6ZM78.988,0V39.916L41.8,60l1.332,2.464,4.624-2.5v7.752L41.712,71V197.2H0V200H160.112v-2.8h-44.8V31l-9.452,5.144V28.576l5.828-3.148-1.332-2.464L81.788,38.4V0Z" fill="#fff"/>
  <rect id="Rectangle_3651" data-name="Rectangle 3651" width="3.202" height="0.7" transform="translate(90.765 193.655)" fill="#fff"/>
  <rect id="Rectangle_3652" data-name="Rectangle 3652" width="2.951" height="0.7" transform="translate(72.326 197.248)" fill="#fff"/>
  <rect id="Rectangle_3653" data-name="Rectangle 3653" width="1.732" height="0.7" transform="translate(94.178 197.248)" fill="#fff"/>
</svg>
