<svg id="Layer_1" data-name="Layer 1" xmlns="http://www.w3.org/2000/svg" viewBox="0 0 350 350"><path id="Path_1" data-name="Path 1" d="M341.34,181.12a8,8,0,0,1-1-11.28,9,9,0,0,1,1-1l3.65-3.07a8,8,0,0,0,2.74-7.93L338,115.16a8,8,0,0,0-5.86-6L327.48,108a8,8,0,0,1-5.77-9.76,7.92,7.92,0,0,1,.48-1.34l2-4.38a8,8,0,0,0-1-8.31L296,50.05a8,8,0,0,0-7.88-2.83l-4.67,1A8,8,0,0,1,274.07,42a8.44,8.44,0,0,1-.15-1.41l-.11-4.81a8,8,0,0,0-4.47-7.06l-39.28-19a7.93,7.93,0,0,0-8.27.86L218,13.52a8,8,0,0,1-11.14-1.37,8.67,8.67,0,0,1-.84-1.32L203.87,6.5a7.89,7.89,0,0,0-7.11-4.37H153.19a7.89,7.89,0,0,0-7.11,4.37L144,10.83a8,8,0,0,1-10.67,3.51,8.46,8.46,0,0,1-1.31-.82l-3.82-2.94a7.93,7.93,0,0,0-8.27-.86l-39.28,19a8,8,0,0,0-4.52,7.06v4.81a8,8,0,0,1-8.19,7.8,8.09,8.09,0,0,1-1.38-.15l-4.72-1A7.92,7.92,0,0,0,54,50.05L26.79,84.25a8,8,0,0,0-1,8.31l2,4.38a8,8,0,0,1-4,10.62,6.75,6.75,0,0,1-1.37.48l-4.67,1.11a8.07,8.07,0,0,0-5.82,6L2.26,157.81A8,8,0,0,0,5,165.74l3.7,3.07a8,8,0,0,1,1,11.28,7.64,7.64,0,0,1-1,1l-3.7,3a8,8,0,0,0-2.69,7.94L12,234.78a8,8,0,0,0,5.82,6l4.67,1.11a8,8,0,0,1,5.81,9.77A7.1,7.1,0,0,1,27.8,253l-2,4.38a8,8,0,0,0,1,8.31L54,299.88a7.87,7.87,0,0,0,7.84,2.79l4.72-.95a7.94,7.94,0,0,1,9.4,6.13,8.63,8.63,0,0,1,.17,1.52v4.81a8,8,0,0,0,4.52,7.06l39.28,19a7.93,7.93,0,0,0,8.27-.86l3.82-2.94a7.93,7.93,0,0,1,11.12,1.37,8.5,8.5,0,0,1,.86,1.37l2.12,4.28a8,8,0,0,0,7.11,4.42h43.58a8,8,0,0,0,7.12-4.42l2.11-4.28a7.91,7.91,0,0,1,10.59-3.61,7.71,7.71,0,0,1,1.39.87l3.83,2.94a7.91,7.91,0,0,0,8.26.86l39.28-19a8,8,0,0,0,4.48-7.06l.1-4.81a7.93,7.93,0,0,1,8-7.82,7.78,7.78,0,0,1,1.52.17l4.67.95a7.91,7.91,0,0,0,7.88-2.79l27.17-34.23a8,8,0,0,0,1-8.31l-2-4.38a8,8,0,0,1,4-10.64,8.51,8.51,0,0,1,1.31-.47l4.67-1.11a8,8,0,0,0,5.87-6l9.71-42.7a8,8,0,0,0-2.74-7.94ZM175,287.66A109,109,0,1,1,284,178.27,109,109,0,0,1,175,287.66Z"/></svg>